%TF.GenerationSoftware,KiCad,Pcbnew,9.0.0*%
%TF.CreationDate,2025-04-01T15:42:48+03:00*%
%TF.ProjectId,fan_555s,66616e5f-3535-4357-932e-6b696361645f,rev?*%
%TF.SameCoordinates,Original*%
%TF.FileFunction,Copper,L1,Top*%
%TF.FilePolarity,Positive*%
%FSLAX46Y46*%
G04 Gerber Fmt 4.6, Leading zero omitted, Abs format (unit mm)*
G04 Created by KiCad (PCBNEW 9.0.0) date 2025-04-01 15:42:48*
%MOMM*%
%LPD*%
G01*
G04 APERTURE LIST*
%TA.AperFunction,ComponentPad*%
%ADD10O,2.000000X2.600000*%
%TD*%
%TA.AperFunction,ComponentPad*%
%ADD11O,2.600000X2.000000*%
%TD*%
%TA.AperFunction,ViaPad*%
%ADD12C,0.830000*%
%TD*%
%TA.AperFunction,Conductor*%
%ADD13C,0.460000*%
%TD*%
G04 APERTURE END LIST*
%TA.AperFunction,SMDPad,CuDef*%
G36*
G01*
X151400000Y-43350000D02*
X151400000Y-42750000D01*
G75*
G02*
X151650000Y-42500000I250000J0D01*
G01*
X152250000Y-42500000D01*
G75*
G02*
X152500000Y-42750000I0J-250000D01*
G01*
X152500000Y-43350000D01*
G75*
G02*
X152250000Y-43600000I-250000J0D01*
G01*
X151650000Y-43600000D01*
G75*
G02*
X151400000Y-43350000I0J250000D01*
G01*
G37*
%TD.AperFunction*%
%TA.AperFunction,SMDPad,CuDef*%
G36*
G01*
X148600000Y-43350000D02*
X148600000Y-42750000D01*
G75*
G02*
X148850000Y-42500000I250000J0D01*
G01*
X149450000Y-42500000D01*
G75*
G02*
X149700000Y-42750000I0J-250000D01*
G01*
X149700000Y-43350000D01*
G75*
G02*
X149450000Y-43600000I-250000J0D01*
G01*
X148850000Y-43600000D01*
G75*
G02*
X148600000Y-43350000I0J250000D01*
G01*
G37*
%TD.AperFunction*%
%TA.AperFunction,SMDPad,CuDef*%
G36*
G01*
X142025000Y-47357500D02*
X140175000Y-47357500D01*
G75*
G02*
X139925000Y-47107500I0J250000D01*
G01*
X139925000Y-46282500D01*
G75*
G02*
X140175000Y-46032500I250000J0D01*
G01*
X142025000Y-46032500D01*
G75*
G02*
X142275000Y-46282500I0J-250000D01*
G01*
X142275000Y-47107500D01*
G75*
G02*
X142025000Y-47357500I-250000J0D01*
G01*
G37*
%TD.AperFunction*%
%TA.AperFunction,SMDPad,CuDef*%
G36*
G01*
X142025000Y-50432500D02*
X140175000Y-50432500D01*
G75*
G02*
X139925000Y-50182500I0J250000D01*
G01*
X139925000Y-49357500D01*
G75*
G02*
X140175000Y-49107500I250000J0D01*
G01*
X142025000Y-49107500D01*
G75*
G02*
X142275000Y-49357500I0J-250000D01*
G01*
X142275000Y-50182500D01*
G75*
G02*
X142025000Y-50432500I-250000J0D01*
G01*
G37*
%TD.AperFunction*%
D10*
X136510000Y-54200000D03*
X139050000Y-54200000D03*
%TA.AperFunction,SMDPad,CuDef*%
G36*
G01*
X146300000Y-50470000D02*
X146300000Y-49720000D01*
G75*
G02*
X146675000Y-49345000I375000J0D01*
G01*
X147925000Y-49345000D01*
G75*
G02*
X148300000Y-49720000I0J-375000D01*
G01*
X148300000Y-50470000D01*
G75*
G02*
X147925000Y-50845000I-375000J0D01*
G01*
X146675000Y-50845000D01*
G75*
G02*
X146300000Y-50470000I0J375000D01*
G01*
G37*
%TD.AperFunction*%
%TA.AperFunction,SMDPad,CuDef*%
G36*
G01*
X152600000Y-49195000D02*
X152600000Y-46395000D01*
G75*
G02*
X153100000Y-45895000I500000J0D01*
G01*
X154100000Y-45895000D01*
G75*
G02*
X154600000Y-46395000I0J-500000D01*
G01*
X154600000Y-49195000D01*
G75*
G02*
X154100000Y-49695000I-500000J0D01*
G01*
X153100000Y-49695000D01*
G75*
G02*
X152600000Y-49195000I0J500000D01*
G01*
G37*
%TD.AperFunction*%
%TA.AperFunction,SMDPad,CuDef*%
G36*
G01*
X146300000Y-48170000D02*
X146300000Y-47420000D01*
G75*
G02*
X146675000Y-47045000I375000J0D01*
G01*
X147925000Y-47045000D01*
G75*
G02*
X148300000Y-47420000I0J-375000D01*
G01*
X148300000Y-48170000D01*
G75*
G02*
X147925000Y-48545000I-375000J0D01*
G01*
X146675000Y-48545000D01*
G75*
G02*
X146300000Y-48170000I0J375000D01*
G01*
G37*
%TD.AperFunction*%
%TA.AperFunction,SMDPad,CuDef*%
G36*
G01*
X146300000Y-45870000D02*
X146300000Y-45120000D01*
G75*
G02*
X146675000Y-44745000I375000J0D01*
G01*
X147925000Y-44745000D01*
G75*
G02*
X148300000Y-45120000I0J-375000D01*
G01*
X148300000Y-45870000D01*
G75*
G02*
X147925000Y-46245000I-375000J0D01*
G01*
X146675000Y-46245000D01*
G75*
G02*
X146300000Y-45870000I0J375000D01*
G01*
G37*
%TD.AperFunction*%
%TA.AperFunction,SMDPad,CuDef*%
G36*
G01*
X133373125Y-49945000D02*
X133373125Y-50245000D01*
G75*
G02*
X133223125Y-50395000I-150000J0D01*
G01*
X131573125Y-50395000D01*
G75*
G02*
X131423125Y-50245000I0J150000D01*
G01*
X131423125Y-49945000D01*
G75*
G02*
X131573125Y-49795000I150000J0D01*
G01*
X133223125Y-49795000D01*
G75*
G02*
X133373125Y-49945000I0J-150000D01*
G01*
G37*
%TD.AperFunction*%
%TA.AperFunction,SMDPad,CuDef*%
G36*
G01*
X133373125Y-48675000D02*
X133373125Y-48975000D01*
G75*
G02*
X133223125Y-49125000I-150000J0D01*
G01*
X131573125Y-49125000D01*
G75*
G02*
X131423125Y-48975000I0J150000D01*
G01*
X131423125Y-48675000D01*
G75*
G02*
X131573125Y-48525000I150000J0D01*
G01*
X133223125Y-48525000D01*
G75*
G02*
X133373125Y-48675000I0J-150000D01*
G01*
G37*
%TD.AperFunction*%
%TA.AperFunction,SMDPad,CuDef*%
G36*
G01*
X133373125Y-47405000D02*
X133373125Y-47705000D01*
G75*
G02*
X133223125Y-47855000I-150000J0D01*
G01*
X131573125Y-47855000D01*
G75*
G02*
X131423125Y-47705000I0J150000D01*
G01*
X131423125Y-47405000D01*
G75*
G02*
X131573125Y-47255000I150000J0D01*
G01*
X133223125Y-47255000D01*
G75*
G02*
X133373125Y-47405000I0J-150000D01*
G01*
G37*
%TD.AperFunction*%
%TA.AperFunction,SMDPad,CuDef*%
G36*
G01*
X133373125Y-46135000D02*
X133373125Y-46435000D01*
G75*
G02*
X133223125Y-46585000I-150000J0D01*
G01*
X131573125Y-46585000D01*
G75*
G02*
X131423125Y-46435000I0J150000D01*
G01*
X131423125Y-46135000D01*
G75*
G02*
X131573125Y-45985000I150000J0D01*
G01*
X133223125Y-45985000D01*
G75*
G02*
X133373125Y-46135000I0J-150000D01*
G01*
G37*
%TD.AperFunction*%
%TA.AperFunction,SMDPad,CuDef*%
G36*
G01*
X138323125Y-46135000D02*
X138323125Y-46435000D01*
G75*
G02*
X138173125Y-46585000I-150000J0D01*
G01*
X136523125Y-46585000D01*
G75*
G02*
X136373125Y-46435000I0J150000D01*
G01*
X136373125Y-46135000D01*
G75*
G02*
X136523125Y-45985000I150000J0D01*
G01*
X138173125Y-45985000D01*
G75*
G02*
X138323125Y-46135000I0J-150000D01*
G01*
G37*
%TD.AperFunction*%
%TA.AperFunction,SMDPad,CuDef*%
G36*
G01*
X138323125Y-47405000D02*
X138323125Y-47705000D01*
G75*
G02*
X138173125Y-47855000I-150000J0D01*
G01*
X136523125Y-47855000D01*
G75*
G02*
X136373125Y-47705000I0J150000D01*
G01*
X136373125Y-47405000D01*
G75*
G02*
X136523125Y-47255000I150000J0D01*
G01*
X138173125Y-47255000D01*
G75*
G02*
X138323125Y-47405000I0J-150000D01*
G01*
G37*
%TD.AperFunction*%
%TA.AperFunction,SMDPad,CuDef*%
G36*
G01*
X138323125Y-48675000D02*
X138323125Y-48975000D01*
G75*
G02*
X138173125Y-49125000I-150000J0D01*
G01*
X136523125Y-49125000D01*
G75*
G02*
X136373125Y-48975000I0J150000D01*
G01*
X136373125Y-48675000D01*
G75*
G02*
X136523125Y-48525000I150000J0D01*
G01*
X138173125Y-48525000D01*
G75*
G02*
X138323125Y-48675000I0J-150000D01*
G01*
G37*
%TD.AperFunction*%
%TA.AperFunction,SMDPad,CuDef*%
G36*
G01*
X138323125Y-49945000D02*
X138323125Y-50245000D01*
G75*
G02*
X138173125Y-50395000I-150000J0D01*
G01*
X136523125Y-50395000D01*
G75*
G02*
X136373125Y-50245000I0J150000D01*
G01*
X136373125Y-49945000D01*
G75*
G02*
X136523125Y-49795000I150000J0D01*
G01*
X138173125Y-49795000D01*
G75*
G02*
X138323125Y-49945000I0J-150000D01*
G01*
G37*
%TD.AperFunction*%
%TA.AperFunction,SMDPad,CuDef*%
G36*
G01*
X145198125Y-47355000D02*
X143898125Y-47355000D01*
G75*
G02*
X143648125Y-47105000I0J250000D01*
G01*
X143648125Y-46455000D01*
G75*
G02*
X143898125Y-46205000I250000J0D01*
G01*
X145198125Y-46205000D01*
G75*
G02*
X145448125Y-46455000I0J-250000D01*
G01*
X145448125Y-47105000D01*
G75*
G02*
X145198125Y-47355000I-250000J0D01*
G01*
G37*
%TD.AperFunction*%
%TA.AperFunction,SMDPad,CuDef*%
G36*
G01*
X145198125Y-50305000D02*
X143898125Y-50305000D01*
G75*
G02*
X143648125Y-50055000I0J250000D01*
G01*
X143648125Y-49405000D01*
G75*
G02*
X143898125Y-49155000I250000J0D01*
G01*
X145198125Y-49155000D01*
G75*
G02*
X145448125Y-49405000I0J-250000D01*
G01*
X145448125Y-50055000D01*
G75*
G02*
X145198125Y-50305000I-250000J0D01*
G01*
G37*
%TD.AperFunction*%
%TA.AperFunction,SMDPad,CuDef*%
G36*
G01*
X138300000Y-44725000D02*
X138300000Y-43475000D01*
G75*
G02*
X138550000Y-43225000I250000J0D01*
G01*
X139175000Y-43225000D01*
G75*
G02*
X139425000Y-43475000I0J-250000D01*
G01*
X139425000Y-44725000D01*
G75*
G02*
X139175000Y-44975000I-250000J0D01*
G01*
X138550000Y-44975000D01*
G75*
G02*
X138300000Y-44725000I0J250000D01*
G01*
G37*
%TD.AperFunction*%
%TA.AperFunction,SMDPad,CuDef*%
G36*
G01*
X135375000Y-44725000D02*
X135375000Y-43475000D01*
G75*
G02*
X135625000Y-43225000I250000J0D01*
G01*
X136250000Y-43225000D01*
G75*
G02*
X136500000Y-43475000I0J-250000D01*
G01*
X136500000Y-44725000D01*
G75*
G02*
X136250000Y-44975000I-250000J0D01*
G01*
X135625000Y-44975000D01*
G75*
G02*
X135375000Y-44725000I0J250000D01*
G01*
G37*
%TD.AperFunction*%
X128725000Y-54200000D03*
X131265000Y-54200000D03*
D11*
X128725000Y-50095000D03*
X128725000Y-47555000D03*
%TA.AperFunction,SMDPad,CuDef*%
G36*
G01*
X141662500Y-43475000D02*
X141662500Y-44725000D01*
G75*
G02*
X141412500Y-44975000I-250000J0D01*
G01*
X140787500Y-44975000D01*
G75*
G02*
X140537500Y-44725000I0J250000D01*
G01*
X140537500Y-43475000D01*
G75*
G02*
X140787500Y-43225000I250000J0D01*
G01*
X141412500Y-43225000D01*
G75*
G02*
X141662500Y-43475000I0J-250000D01*
G01*
G37*
%TD.AperFunction*%
%TA.AperFunction,SMDPad,CuDef*%
G36*
G01*
X144587500Y-43475000D02*
X144587500Y-44725000D01*
G75*
G02*
X144337500Y-44975000I-250000J0D01*
G01*
X143712500Y-44975000D01*
G75*
G02*
X143462500Y-44725000I0J250000D01*
G01*
X143462500Y-43475000D01*
G75*
G02*
X143712500Y-43225000I250000J0D01*
G01*
X144337500Y-43225000D01*
G75*
G02*
X144587500Y-43475000I0J-250000D01*
G01*
G37*
%TD.AperFunction*%
%TA.AperFunction,SMDPad,CuDef*%
G36*
G01*
X131823125Y-43900000D02*
X131823125Y-42600000D01*
G75*
G02*
X132073125Y-42350000I250000J0D01*
G01*
X132723125Y-42350000D01*
G75*
G02*
X132973125Y-42600000I0J-250000D01*
G01*
X132973125Y-43900000D01*
G75*
G02*
X132723125Y-44150000I-250000J0D01*
G01*
X132073125Y-44150000D01*
G75*
G02*
X131823125Y-43900000I0J250000D01*
G01*
G37*
%TD.AperFunction*%
%TA.AperFunction,SMDPad,CuDef*%
G36*
G01*
X128873125Y-43900000D02*
X128873125Y-42600000D01*
G75*
G02*
X129123125Y-42350000I250000J0D01*
G01*
X129773125Y-42350000D01*
G75*
G02*
X130023125Y-42600000I0J-250000D01*
G01*
X130023125Y-43900000D01*
G75*
G02*
X129773125Y-44150000I-250000J0D01*
G01*
X129123125Y-44150000D01*
G75*
G02*
X128873125Y-43900000I0J250000D01*
G01*
G37*
%TD.AperFunction*%
%TA.AperFunction,SMDPad,CuDef*%
G36*
G01*
X110400000Y-43255000D02*
X110400000Y-42655000D01*
G75*
G02*
X110650000Y-42405000I250000J0D01*
G01*
X111250000Y-42405000D01*
G75*
G02*
X111500000Y-42655000I0J-250000D01*
G01*
X111500000Y-43255000D01*
G75*
G02*
X111250000Y-43505000I-250000J0D01*
G01*
X110650000Y-43505000D01*
G75*
G02*
X110400000Y-43255000I0J250000D01*
G01*
G37*
%TD.AperFunction*%
%TA.AperFunction,SMDPad,CuDef*%
G36*
G01*
X107600000Y-43255000D02*
X107600000Y-42655000D01*
G75*
G02*
X107850000Y-42405000I250000J0D01*
G01*
X108450000Y-42405000D01*
G75*
G02*
X108700000Y-42655000I0J-250000D01*
G01*
X108700000Y-43255000D01*
G75*
G02*
X108450000Y-43505000I-250000J0D01*
G01*
X107850000Y-43505000D01*
G75*
G02*
X107600000Y-43255000I0J250000D01*
G01*
G37*
%TD.AperFunction*%
%TA.AperFunction,SMDPad,CuDef*%
G36*
G01*
X101025000Y-47262500D02*
X99175000Y-47262500D01*
G75*
G02*
X98925000Y-47012500I0J250000D01*
G01*
X98925000Y-46187500D01*
G75*
G02*
X99175000Y-45937500I250000J0D01*
G01*
X101025000Y-45937500D01*
G75*
G02*
X101275000Y-46187500I0J-250000D01*
G01*
X101275000Y-47012500D01*
G75*
G02*
X101025000Y-47262500I-250000J0D01*
G01*
G37*
%TD.AperFunction*%
%TA.AperFunction,SMDPad,CuDef*%
G36*
G01*
X101025000Y-50337500D02*
X99175000Y-50337500D01*
G75*
G02*
X98925000Y-50087500I0J250000D01*
G01*
X98925000Y-49262500D01*
G75*
G02*
X99175000Y-49012500I250000J0D01*
G01*
X101025000Y-49012500D01*
G75*
G02*
X101275000Y-49262500I0J-250000D01*
G01*
X101275000Y-50087500D01*
G75*
G02*
X101025000Y-50337500I-250000J0D01*
G01*
G37*
%TD.AperFunction*%
D10*
X95510000Y-54105000D03*
X98050000Y-54105000D03*
%TA.AperFunction,SMDPad,CuDef*%
G36*
G01*
X105300000Y-50375000D02*
X105300000Y-49625000D01*
G75*
G02*
X105675000Y-49250000I375000J0D01*
G01*
X106925000Y-49250000D01*
G75*
G02*
X107300000Y-49625000I0J-375000D01*
G01*
X107300000Y-50375000D01*
G75*
G02*
X106925000Y-50750000I-375000J0D01*
G01*
X105675000Y-50750000D01*
G75*
G02*
X105300000Y-50375000I0J375000D01*
G01*
G37*
%TD.AperFunction*%
%TA.AperFunction,SMDPad,CuDef*%
G36*
G01*
X111600000Y-49100000D02*
X111600000Y-46300000D01*
G75*
G02*
X112100000Y-45800000I500000J0D01*
G01*
X113100000Y-45800000D01*
G75*
G02*
X113600000Y-46300000I0J-500000D01*
G01*
X113600000Y-49100000D01*
G75*
G02*
X113100000Y-49600000I-500000J0D01*
G01*
X112100000Y-49600000D01*
G75*
G02*
X111600000Y-49100000I0J500000D01*
G01*
G37*
%TD.AperFunction*%
%TA.AperFunction,SMDPad,CuDef*%
G36*
G01*
X105300000Y-48075000D02*
X105300000Y-47325000D01*
G75*
G02*
X105675000Y-46950000I375000J0D01*
G01*
X106925000Y-46950000D01*
G75*
G02*
X107300000Y-47325000I0J-375000D01*
G01*
X107300000Y-48075000D01*
G75*
G02*
X106925000Y-48450000I-375000J0D01*
G01*
X105675000Y-48450000D01*
G75*
G02*
X105300000Y-48075000I0J375000D01*
G01*
G37*
%TD.AperFunction*%
%TA.AperFunction,SMDPad,CuDef*%
G36*
G01*
X105300000Y-45775000D02*
X105300000Y-45025000D01*
G75*
G02*
X105675000Y-44650000I375000J0D01*
G01*
X106925000Y-44650000D01*
G75*
G02*
X107300000Y-45025000I0J-375000D01*
G01*
X107300000Y-45775000D01*
G75*
G02*
X106925000Y-46150000I-375000J0D01*
G01*
X105675000Y-46150000D01*
G75*
G02*
X105300000Y-45775000I0J375000D01*
G01*
G37*
%TD.AperFunction*%
%TA.AperFunction,SMDPad,CuDef*%
G36*
G01*
X92373125Y-49850000D02*
X92373125Y-50150000D01*
G75*
G02*
X92223125Y-50300000I-150000J0D01*
G01*
X90573125Y-50300000D01*
G75*
G02*
X90423125Y-50150000I0J150000D01*
G01*
X90423125Y-49850000D01*
G75*
G02*
X90573125Y-49700000I150000J0D01*
G01*
X92223125Y-49700000D01*
G75*
G02*
X92373125Y-49850000I0J-150000D01*
G01*
G37*
%TD.AperFunction*%
%TA.AperFunction,SMDPad,CuDef*%
G36*
G01*
X92373125Y-48580000D02*
X92373125Y-48880000D01*
G75*
G02*
X92223125Y-49030000I-150000J0D01*
G01*
X90573125Y-49030000D01*
G75*
G02*
X90423125Y-48880000I0J150000D01*
G01*
X90423125Y-48580000D01*
G75*
G02*
X90573125Y-48430000I150000J0D01*
G01*
X92223125Y-48430000D01*
G75*
G02*
X92373125Y-48580000I0J-150000D01*
G01*
G37*
%TD.AperFunction*%
%TA.AperFunction,SMDPad,CuDef*%
G36*
G01*
X92373125Y-47310000D02*
X92373125Y-47610000D01*
G75*
G02*
X92223125Y-47760000I-150000J0D01*
G01*
X90573125Y-47760000D01*
G75*
G02*
X90423125Y-47610000I0J150000D01*
G01*
X90423125Y-47310000D01*
G75*
G02*
X90573125Y-47160000I150000J0D01*
G01*
X92223125Y-47160000D01*
G75*
G02*
X92373125Y-47310000I0J-150000D01*
G01*
G37*
%TD.AperFunction*%
%TA.AperFunction,SMDPad,CuDef*%
G36*
G01*
X92373125Y-46040000D02*
X92373125Y-46340000D01*
G75*
G02*
X92223125Y-46490000I-150000J0D01*
G01*
X90573125Y-46490000D01*
G75*
G02*
X90423125Y-46340000I0J150000D01*
G01*
X90423125Y-46040000D01*
G75*
G02*
X90573125Y-45890000I150000J0D01*
G01*
X92223125Y-45890000D01*
G75*
G02*
X92373125Y-46040000I0J-150000D01*
G01*
G37*
%TD.AperFunction*%
%TA.AperFunction,SMDPad,CuDef*%
G36*
G01*
X97323125Y-46040000D02*
X97323125Y-46340000D01*
G75*
G02*
X97173125Y-46490000I-150000J0D01*
G01*
X95523125Y-46490000D01*
G75*
G02*
X95373125Y-46340000I0J150000D01*
G01*
X95373125Y-46040000D01*
G75*
G02*
X95523125Y-45890000I150000J0D01*
G01*
X97173125Y-45890000D01*
G75*
G02*
X97323125Y-46040000I0J-150000D01*
G01*
G37*
%TD.AperFunction*%
%TA.AperFunction,SMDPad,CuDef*%
G36*
G01*
X97323125Y-47310000D02*
X97323125Y-47610000D01*
G75*
G02*
X97173125Y-47760000I-150000J0D01*
G01*
X95523125Y-47760000D01*
G75*
G02*
X95373125Y-47610000I0J150000D01*
G01*
X95373125Y-47310000D01*
G75*
G02*
X95523125Y-47160000I150000J0D01*
G01*
X97173125Y-47160000D01*
G75*
G02*
X97323125Y-47310000I0J-150000D01*
G01*
G37*
%TD.AperFunction*%
%TA.AperFunction,SMDPad,CuDef*%
G36*
G01*
X97323125Y-48580000D02*
X97323125Y-48880000D01*
G75*
G02*
X97173125Y-49030000I-150000J0D01*
G01*
X95523125Y-49030000D01*
G75*
G02*
X95373125Y-48880000I0J150000D01*
G01*
X95373125Y-48580000D01*
G75*
G02*
X95523125Y-48430000I150000J0D01*
G01*
X97173125Y-48430000D01*
G75*
G02*
X97323125Y-48580000I0J-150000D01*
G01*
G37*
%TD.AperFunction*%
%TA.AperFunction,SMDPad,CuDef*%
G36*
G01*
X97323125Y-49850000D02*
X97323125Y-50150000D01*
G75*
G02*
X97173125Y-50300000I-150000J0D01*
G01*
X95523125Y-50300000D01*
G75*
G02*
X95373125Y-50150000I0J150000D01*
G01*
X95373125Y-49850000D01*
G75*
G02*
X95523125Y-49700000I150000J0D01*
G01*
X97173125Y-49700000D01*
G75*
G02*
X97323125Y-49850000I0J-150000D01*
G01*
G37*
%TD.AperFunction*%
%TA.AperFunction,SMDPad,CuDef*%
G36*
G01*
X104198125Y-47260000D02*
X102898125Y-47260000D01*
G75*
G02*
X102648125Y-47010000I0J250000D01*
G01*
X102648125Y-46360000D01*
G75*
G02*
X102898125Y-46110000I250000J0D01*
G01*
X104198125Y-46110000D01*
G75*
G02*
X104448125Y-46360000I0J-250000D01*
G01*
X104448125Y-47010000D01*
G75*
G02*
X104198125Y-47260000I-250000J0D01*
G01*
G37*
%TD.AperFunction*%
%TA.AperFunction,SMDPad,CuDef*%
G36*
G01*
X104198125Y-50210000D02*
X102898125Y-50210000D01*
G75*
G02*
X102648125Y-49960000I0J250000D01*
G01*
X102648125Y-49310000D01*
G75*
G02*
X102898125Y-49060000I250000J0D01*
G01*
X104198125Y-49060000D01*
G75*
G02*
X104448125Y-49310000I0J-250000D01*
G01*
X104448125Y-49960000D01*
G75*
G02*
X104198125Y-50210000I-250000J0D01*
G01*
G37*
%TD.AperFunction*%
%TA.AperFunction,SMDPad,CuDef*%
G36*
G01*
X97300000Y-44630000D02*
X97300000Y-43380000D01*
G75*
G02*
X97550000Y-43130000I250000J0D01*
G01*
X98175000Y-43130000D01*
G75*
G02*
X98425000Y-43380000I0J-250000D01*
G01*
X98425000Y-44630000D01*
G75*
G02*
X98175000Y-44880000I-250000J0D01*
G01*
X97550000Y-44880000D01*
G75*
G02*
X97300000Y-44630000I0J250000D01*
G01*
G37*
%TD.AperFunction*%
%TA.AperFunction,SMDPad,CuDef*%
G36*
G01*
X94375000Y-44630000D02*
X94375000Y-43380000D01*
G75*
G02*
X94625000Y-43130000I250000J0D01*
G01*
X95250000Y-43130000D01*
G75*
G02*
X95500000Y-43380000I0J-250000D01*
G01*
X95500000Y-44630000D01*
G75*
G02*
X95250000Y-44880000I-250000J0D01*
G01*
X94625000Y-44880000D01*
G75*
G02*
X94375000Y-44630000I0J250000D01*
G01*
G37*
%TD.AperFunction*%
X87725000Y-54105000D03*
X90265000Y-54105000D03*
D11*
X87725000Y-50000000D03*
X87725000Y-47460000D03*
%TA.AperFunction,SMDPad,CuDef*%
G36*
G01*
X100662500Y-43380000D02*
X100662500Y-44630000D01*
G75*
G02*
X100412500Y-44880000I-250000J0D01*
G01*
X99787500Y-44880000D01*
G75*
G02*
X99537500Y-44630000I0J250000D01*
G01*
X99537500Y-43380000D01*
G75*
G02*
X99787500Y-43130000I250000J0D01*
G01*
X100412500Y-43130000D01*
G75*
G02*
X100662500Y-43380000I0J-250000D01*
G01*
G37*
%TD.AperFunction*%
%TA.AperFunction,SMDPad,CuDef*%
G36*
G01*
X103587500Y-43380000D02*
X103587500Y-44630000D01*
G75*
G02*
X103337500Y-44880000I-250000J0D01*
G01*
X102712500Y-44880000D01*
G75*
G02*
X102462500Y-44630000I0J250000D01*
G01*
X102462500Y-43380000D01*
G75*
G02*
X102712500Y-43130000I250000J0D01*
G01*
X103337500Y-43130000D01*
G75*
G02*
X103587500Y-43380000I0J-250000D01*
G01*
G37*
%TD.AperFunction*%
%TA.AperFunction,SMDPad,CuDef*%
G36*
G01*
X90823125Y-43805000D02*
X90823125Y-42505000D01*
G75*
G02*
X91073125Y-42255000I250000J0D01*
G01*
X91723125Y-42255000D01*
G75*
G02*
X91973125Y-42505000I0J-250000D01*
G01*
X91973125Y-43805000D01*
G75*
G02*
X91723125Y-44055000I-250000J0D01*
G01*
X91073125Y-44055000D01*
G75*
G02*
X90823125Y-43805000I0J250000D01*
G01*
G37*
%TD.AperFunction*%
%TA.AperFunction,SMDPad,CuDef*%
G36*
G01*
X87873125Y-43805000D02*
X87873125Y-42505000D01*
G75*
G02*
X88123125Y-42255000I250000J0D01*
G01*
X88773125Y-42255000D01*
G75*
G02*
X89023125Y-42505000I0J-250000D01*
G01*
X89023125Y-43805000D01*
G75*
G02*
X88773125Y-44055000I-250000J0D01*
G01*
X88123125Y-44055000D01*
G75*
G02*
X87873125Y-43805000I0J250000D01*
G01*
G37*
%TD.AperFunction*%
%TA.AperFunction,SMDPad,CuDef*%
G36*
G01*
X46873125Y-43900000D02*
X46873125Y-42600000D01*
G75*
G02*
X47123125Y-42350000I250000J0D01*
G01*
X47773125Y-42350000D01*
G75*
G02*
X48023125Y-42600000I0J-250000D01*
G01*
X48023125Y-43900000D01*
G75*
G02*
X47773125Y-44150000I-250000J0D01*
G01*
X47123125Y-44150000D01*
G75*
G02*
X46873125Y-43900000I0J250000D01*
G01*
G37*
%TD.AperFunction*%
%TA.AperFunction,SMDPad,CuDef*%
G36*
G01*
X49823125Y-43900000D02*
X49823125Y-42600000D01*
G75*
G02*
X50073125Y-42350000I250000J0D01*
G01*
X50723125Y-42350000D01*
G75*
G02*
X50973125Y-42600000I0J-250000D01*
G01*
X50973125Y-43900000D01*
G75*
G02*
X50723125Y-44150000I-250000J0D01*
G01*
X50073125Y-44150000D01*
G75*
G02*
X49823125Y-43900000I0J250000D01*
G01*
G37*
%TD.AperFunction*%
%TA.AperFunction,SMDPad,CuDef*%
G36*
G01*
X62587500Y-43475000D02*
X62587500Y-44725000D01*
G75*
G02*
X62337500Y-44975000I-250000J0D01*
G01*
X61712500Y-44975000D01*
G75*
G02*
X61462500Y-44725000I0J250000D01*
G01*
X61462500Y-43475000D01*
G75*
G02*
X61712500Y-43225000I250000J0D01*
G01*
X62337500Y-43225000D01*
G75*
G02*
X62587500Y-43475000I0J-250000D01*
G01*
G37*
%TD.AperFunction*%
%TA.AperFunction,SMDPad,CuDef*%
G36*
G01*
X59662500Y-43475000D02*
X59662500Y-44725000D01*
G75*
G02*
X59412500Y-44975000I-250000J0D01*
G01*
X58787500Y-44975000D01*
G75*
G02*
X58537500Y-44725000I0J250000D01*
G01*
X58537500Y-43475000D01*
G75*
G02*
X58787500Y-43225000I250000J0D01*
G01*
X59412500Y-43225000D01*
G75*
G02*
X59662500Y-43475000I0J-250000D01*
G01*
G37*
%TD.AperFunction*%
X46725000Y-47555000D03*
X46725000Y-50095000D03*
D10*
X49265000Y-54200000D03*
X46725000Y-54200000D03*
%TA.AperFunction,SMDPad,CuDef*%
G36*
G01*
X53375000Y-44725000D02*
X53375000Y-43475000D01*
G75*
G02*
X53625000Y-43225000I250000J0D01*
G01*
X54250000Y-43225000D01*
G75*
G02*
X54500000Y-43475000I0J-250000D01*
G01*
X54500000Y-44725000D01*
G75*
G02*
X54250000Y-44975000I-250000J0D01*
G01*
X53625000Y-44975000D01*
G75*
G02*
X53375000Y-44725000I0J250000D01*
G01*
G37*
%TD.AperFunction*%
%TA.AperFunction,SMDPad,CuDef*%
G36*
G01*
X56300000Y-44725000D02*
X56300000Y-43475000D01*
G75*
G02*
X56550000Y-43225000I250000J0D01*
G01*
X57175000Y-43225000D01*
G75*
G02*
X57425000Y-43475000I0J-250000D01*
G01*
X57425000Y-44725000D01*
G75*
G02*
X57175000Y-44975000I-250000J0D01*
G01*
X56550000Y-44975000D01*
G75*
G02*
X56300000Y-44725000I0J250000D01*
G01*
G37*
%TD.AperFunction*%
%TA.AperFunction,SMDPad,CuDef*%
G36*
G01*
X63198125Y-50305000D02*
X61898125Y-50305000D01*
G75*
G02*
X61648125Y-50055000I0J250000D01*
G01*
X61648125Y-49405000D01*
G75*
G02*
X61898125Y-49155000I250000J0D01*
G01*
X63198125Y-49155000D01*
G75*
G02*
X63448125Y-49405000I0J-250000D01*
G01*
X63448125Y-50055000D01*
G75*
G02*
X63198125Y-50305000I-250000J0D01*
G01*
G37*
%TD.AperFunction*%
%TA.AperFunction,SMDPad,CuDef*%
G36*
G01*
X63198125Y-47355000D02*
X61898125Y-47355000D01*
G75*
G02*
X61648125Y-47105000I0J250000D01*
G01*
X61648125Y-46455000D01*
G75*
G02*
X61898125Y-46205000I250000J0D01*
G01*
X63198125Y-46205000D01*
G75*
G02*
X63448125Y-46455000I0J-250000D01*
G01*
X63448125Y-47105000D01*
G75*
G02*
X63198125Y-47355000I-250000J0D01*
G01*
G37*
%TD.AperFunction*%
%TA.AperFunction,SMDPad,CuDef*%
G36*
G01*
X56323125Y-49945000D02*
X56323125Y-50245000D01*
G75*
G02*
X56173125Y-50395000I-150000J0D01*
G01*
X54523125Y-50395000D01*
G75*
G02*
X54373125Y-50245000I0J150000D01*
G01*
X54373125Y-49945000D01*
G75*
G02*
X54523125Y-49795000I150000J0D01*
G01*
X56173125Y-49795000D01*
G75*
G02*
X56323125Y-49945000I0J-150000D01*
G01*
G37*
%TD.AperFunction*%
%TA.AperFunction,SMDPad,CuDef*%
G36*
G01*
X56323125Y-48675000D02*
X56323125Y-48975000D01*
G75*
G02*
X56173125Y-49125000I-150000J0D01*
G01*
X54523125Y-49125000D01*
G75*
G02*
X54373125Y-48975000I0J150000D01*
G01*
X54373125Y-48675000D01*
G75*
G02*
X54523125Y-48525000I150000J0D01*
G01*
X56173125Y-48525000D01*
G75*
G02*
X56323125Y-48675000I0J-150000D01*
G01*
G37*
%TD.AperFunction*%
%TA.AperFunction,SMDPad,CuDef*%
G36*
G01*
X56323125Y-47405000D02*
X56323125Y-47705000D01*
G75*
G02*
X56173125Y-47855000I-150000J0D01*
G01*
X54523125Y-47855000D01*
G75*
G02*
X54373125Y-47705000I0J150000D01*
G01*
X54373125Y-47405000D01*
G75*
G02*
X54523125Y-47255000I150000J0D01*
G01*
X56173125Y-47255000D01*
G75*
G02*
X56323125Y-47405000I0J-150000D01*
G01*
G37*
%TD.AperFunction*%
%TA.AperFunction,SMDPad,CuDef*%
G36*
G01*
X56323125Y-46135000D02*
X56323125Y-46435000D01*
G75*
G02*
X56173125Y-46585000I-150000J0D01*
G01*
X54523125Y-46585000D01*
G75*
G02*
X54373125Y-46435000I0J150000D01*
G01*
X54373125Y-46135000D01*
G75*
G02*
X54523125Y-45985000I150000J0D01*
G01*
X56173125Y-45985000D01*
G75*
G02*
X56323125Y-46135000I0J-150000D01*
G01*
G37*
%TD.AperFunction*%
%TA.AperFunction,SMDPad,CuDef*%
G36*
G01*
X51373125Y-46135000D02*
X51373125Y-46435000D01*
G75*
G02*
X51223125Y-46585000I-150000J0D01*
G01*
X49573125Y-46585000D01*
G75*
G02*
X49423125Y-46435000I0J150000D01*
G01*
X49423125Y-46135000D01*
G75*
G02*
X49573125Y-45985000I150000J0D01*
G01*
X51223125Y-45985000D01*
G75*
G02*
X51373125Y-46135000I0J-150000D01*
G01*
G37*
%TD.AperFunction*%
%TA.AperFunction,SMDPad,CuDef*%
G36*
G01*
X51373125Y-47405000D02*
X51373125Y-47705000D01*
G75*
G02*
X51223125Y-47855000I-150000J0D01*
G01*
X49573125Y-47855000D01*
G75*
G02*
X49423125Y-47705000I0J150000D01*
G01*
X49423125Y-47405000D01*
G75*
G02*
X49573125Y-47255000I150000J0D01*
G01*
X51223125Y-47255000D01*
G75*
G02*
X51373125Y-47405000I0J-150000D01*
G01*
G37*
%TD.AperFunction*%
%TA.AperFunction,SMDPad,CuDef*%
G36*
G01*
X51373125Y-48675000D02*
X51373125Y-48975000D01*
G75*
G02*
X51223125Y-49125000I-150000J0D01*
G01*
X49573125Y-49125000D01*
G75*
G02*
X49423125Y-48975000I0J150000D01*
G01*
X49423125Y-48675000D01*
G75*
G02*
X49573125Y-48525000I150000J0D01*
G01*
X51223125Y-48525000D01*
G75*
G02*
X51373125Y-48675000I0J-150000D01*
G01*
G37*
%TD.AperFunction*%
%TA.AperFunction,SMDPad,CuDef*%
G36*
G01*
X51373125Y-49945000D02*
X51373125Y-50245000D01*
G75*
G02*
X51223125Y-50395000I-150000J0D01*
G01*
X49573125Y-50395000D01*
G75*
G02*
X49423125Y-50245000I0J150000D01*
G01*
X49423125Y-49945000D01*
G75*
G02*
X49573125Y-49795000I150000J0D01*
G01*
X51223125Y-49795000D01*
G75*
G02*
X51373125Y-49945000I0J-150000D01*
G01*
G37*
%TD.AperFunction*%
%TA.AperFunction,SMDPad,CuDef*%
G36*
G01*
X64300000Y-45870000D02*
X64300000Y-45120000D01*
G75*
G02*
X64675000Y-44745000I375000J0D01*
G01*
X65925000Y-44745000D01*
G75*
G02*
X66300000Y-45120000I0J-375000D01*
G01*
X66300000Y-45870000D01*
G75*
G02*
X65925000Y-46245000I-375000J0D01*
G01*
X64675000Y-46245000D01*
G75*
G02*
X64300000Y-45870000I0J375000D01*
G01*
G37*
%TD.AperFunction*%
%TA.AperFunction,SMDPad,CuDef*%
G36*
G01*
X64300000Y-48170000D02*
X64300000Y-47420000D01*
G75*
G02*
X64675000Y-47045000I375000J0D01*
G01*
X65925000Y-47045000D01*
G75*
G02*
X66300000Y-47420000I0J-375000D01*
G01*
X66300000Y-48170000D01*
G75*
G02*
X65925000Y-48545000I-375000J0D01*
G01*
X64675000Y-48545000D01*
G75*
G02*
X64300000Y-48170000I0J375000D01*
G01*
G37*
%TD.AperFunction*%
%TA.AperFunction,SMDPad,CuDef*%
G36*
G01*
X70600000Y-49195000D02*
X70600000Y-46395000D01*
G75*
G02*
X71100000Y-45895000I500000J0D01*
G01*
X72100000Y-45895000D01*
G75*
G02*
X72600000Y-46395000I0J-500000D01*
G01*
X72600000Y-49195000D01*
G75*
G02*
X72100000Y-49695000I-500000J0D01*
G01*
X71100000Y-49695000D01*
G75*
G02*
X70600000Y-49195000I0J500000D01*
G01*
G37*
%TD.AperFunction*%
%TA.AperFunction,SMDPad,CuDef*%
G36*
G01*
X64300000Y-50470000D02*
X64300000Y-49720000D01*
G75*
G02*
X64675000Y-49345000I375000J0D01*
G01*
X65925000Y-49345000D01*
G75*
G02*
X66300000Y-49720000I0J-375000D01*
G01*
X66300000Y-50470000D01*
G75*
G02*
X65925000Y-50845000I-375000J0D01*
G01*
X64675000Y-50845000D01*
G75*
G02*
X64300000Y-50470000I0J375000D01*
G01*
G37*
%TD.AperFunction*%
X57050000Y-54200000D03*
X54510000Y-54200000D03*
%TA.AperFunction,SMDPad,CuDef*%
G36*
G01*
X60025000Y-50432500D02*
X58175000Y-50432500D01*
G75*
G02*
X57925000Y-50182500I0J250000D01*
G01*
X57925000Y-49357500D01*
G75*
G02*
X58175000Y-49107500I250000J0D01*
G01*
X60025000Y-49107500D01*
G75*
G02*
X60275000Y-49357500I0J-250000D01*
G01*
X60275000Y-50182500D01*
G75*
G02*
X60025000Y-50432500I-250000J0D01*
G01*
G37*
%TD.AperFunction*%
%TA.AperFunction,SMDPad,CuDef*%
G36*
G01*
X60025000Y-47357500D02*
X58175000Y-47357500D01*
G75*
G02*
X57925000Y-47107500I0J250000D01*
G01*
X57925000Y-46282500D01*
G75*
G02*
X58175000Y-46032500I250000J0D01*
G01*
X60025000Y-46032500D01*
G75*
G02*
X60275000Y-46282500I0J-250000D01*
G01*
X60275000Y-47107500D01*
G75*
G02*
X60025000Y-47357500I-250000J0D01*
G01*
G37*
%TD.AperFunction*%
%TA.AperFunction,SMDPad,CuDef*%
G36*
G01*
X66600000Y-43350000D02*
X66600000Y-42750000D01*
G75*
G02*
X66850000Y-42500000I250000J0D01*
G01*
X67450000Y-42500000D01*
G75*
G02*
X67700000Y-42750000I0J-250000D01*
G01*
X67700000Y-43350000D01*
G75*
G02*
X67450000Y-43600000I-250000J0D01*
G01*
X66850000Y-43600000D01*
G75*
G02*
X66600000Y-43350000I0J250000D01*
G01*
G37*
%TD.AperFunction*%
%TA.AperFunction,SMDPad,CuDef*%
G36*
G01*
X69400000Y-43350000D02*
X69400000Y-42750000D01*
G75*
G02*
X69650000Y-42500000I250000J0D01*
G01*
X70250000Y-42500000D01*
G75*
G02*
X70500000Y-42750000I0J-250000D01*
G01*
X70500000Y-43350000D01*
G75*
G02*
X70250000Y-43600000I-250000J0D01*
G01*
X69650000Y-43600000D01*
G75*
G02*
X69400000Y-43350000I0J250000D01*
G01*
G37*
%TD.AperFunction*%
D12*
X163000000Y-40000000D03*
X163000000Y-58000000D03*
X41000000Y-58000000D03*
X41000000Y-40000000D03*
D13*
X137348125Y-47555000D02*
X135505000Y-47555000D01*
X139250000Y-42600000D02*
X146250000Y-42600000D01*
X138862500Y-44100000D02*
X138862500Y-42987500D01*
X130925000Y-48825000D02*
X132398125Y-48825000D01*
X150450000Y-51900000D02*
X149550000Y-52800000D01*
X147300000Y-45495000D02*
X147300000Y-43650000D01*
X134750000Y-46800000D02*
X134750000Y-44350000D01*
X129655000Y-50095000D02*
X130925000Y-48825000D01*
X134750000Y-44350000D02*
X135000000Y-44100000D01*
X135505000Y-47555000D02*
X134750000Y-46800000D01*
X128725000Y-50095000D02*
X129655000Y-50095000D01*
X135000000Y-44100000D02*
X135937500Y-44100000D01*
X147300000Y-43650000D02*
X146250000Y-42600000D01*
X138862500Y-42987500D02*
X139250000Y-42600000D01*
X125100000Y-55200000D02*
X125100000Y-44300000D01*
X139230000Y-49770000D02*
X138905000Y-50095000D01*
X146900000Y-51450000D02*
X147300000Y-51050000D01*
X133405000Y-47555000D02*
X134675000Y-48825000D01*
X144025000Y-44100000D02*
X144025000Y-45025000D01*
X144050000Y-48200000D02*
X144548125Y-47701875D01*
X144548125Y-45548125D02*
X144548125Y-46780000D01*
X132398125Y-47555000D02*
X133405000Y-47555000D01*
X141100000Y-49770000D02*
X141100000Y-51400000D01*
X141100000Y-49770000D02*
X139230000Y-49770000D01*
X137348125Y-48825000D02*
X138975000Y-48825000D01*
X138975000Y-48825000D02*
X139600000Y-48200000D01*
X138905000Y-50095000D02*
X137348125Y-50095000D01*
X144500000Y-51450000D02*
X146900000Y-51450000D01*
X144548125Y-49730000D02*
X144548125Y-51401875D01*
X126169000Y-56269000D02*
X125700000Y-55800000D01*
X141150000Y-51450000D02*
X134750000Y-51450000D01*
X134100000Y-52100000D02*
X134100000Y-55050000D01*
X134100000Y-55050000D02*
X132881000Y-56269000D01*
X141150000Y-51450000D02*
X144500000Y-51450000D01*
X147050000Y-41750000D02*
X147800000Y-41750000D01*
X133215000Y-46285000D02*
X133500000Y-46000000D01*
X137350000Y-41750000D02*
X131500000Y-41750000D01*
X151950000Y-50700000D02*
X151475000Y-51175000D01*
X147850000Y-41750000D02*
X147800000Y-41750000D01*
X131405000Y-50095000D02*
X130850000Y-50650000D01*
X133500000Y-43600000D02*
X133150000Y-43250000D01*
X139245000Y-46695000D02*
X141100000Y-46695000D01*
X149100000Y-41750000D02*
X153700000Y-41750000D01*
X128725000Y-54200000D02*
X127300000Y-54200000D01*
X141931000Y-56269000D02*
X136869000Y-56269000D01*
X137348125Y-46285000D02*
X137348125Y-41751875D01*
X125700000Y-55800000D02*
X125100000Y-55200000D01*
X126100000Y-51500000D02*
X126650000Y-52050000D01*
X130850000Y-50650000D02*
X130850000Y-51700000D01*
X137348125Y-46285000D02*
X138835000Y-46285000D01*
X130400000Y-45500000D02*
X127300000Y-45500000D01*
X149150000Y-41800000D02*
X149100000Y-41750000D01*
X155500000Y-43550000D02*
X155500000Y-50150000D01*
X127300000Y-45500000D02*
X126100000Y-46700000D01*
X131265000Y-52115000D02*
X130850000Y-51700000D01*
X125100000Y-44300000D02*
X126150000Y-43250000D01*
X134750000Y-51450000D02*
X134100000Y-52100000D01*
X150450000Y-53950000D02*
X144250000Y-53950000D01*
X126650000Y-52050000D02*
X130500000Y-52050000D01*
X136869000Y-56269000D02*
X136510000Y-55910000D01*
X147300000Y-51050000D02*
X147300000Y-50095000D01*
X130950000Y-42300000D02*
X130950000Y-44950000D01*
X130500000Y-52050000D02*
X130850000Y-51700000D01*
X131500000Y-41750000D02*
X130950000Y-42300000D01*
X127300000Y-54200000D02*
X125700000Y-55800000D01*
X153700000Y-41750000D02*
X155500000Y-43550000D01*
X126100000Y-46700000D02*
X126100000Y-51500000D01*
X144250000Y-53950000D02*
X141931000Y-56269000D01*
X141100000Y-44100000D02*
X141100000Y-46695000D01*
X137348125Y-41751875D02*
X137350000Y-41750000D01*
X137350000Y-41750000D02*
X139150000Y-41750000D01*
X139150000Y-41750000D02*
X147050000Y-41750000D01*
X131265000Y-54200000D02*
X131265000Y-52115000D01*
X154950000Y-50700000D02*
X151950000Y-50700000D01*
X126150000Y-43250000D02*
X129448125Y-43250000D01*
X155500000Y-50150000D02*
X154950000Y-50700000D01*
X138835000Y-46285000D02*
X139245000Y-46695000D01*
X133500000Y-46000000D02*
X133500000Y-43600000D01*
X136510000Y-55910000D02*
X136510000Y-54200000D01*
X147050000Y-41750000D02*
X149100000Y-41750000D01*
X144548125Y-51401875D02*
X144500000Y-51450000D01*
X151475000Y-52925000D02*
X150450000Y-53950000D01*
X151475000Y-51175000D02*
X151475000Y-52925000D01*
X130950000Y-44950000D02*
X130400000Y-45500000D01*
X151950000Y-43050000D02*
X152900000Y-43050000D01*
X152900000Y-43050000D02*
X153600000Y-43750000D01*
X149150000Y-43050000D02*
X149150000Y-41800000D01*
X149550000Y-52800000D02*
X140450000Y-52800000D01*
X140450000Y-52800000D02*
X139050000Y-54200000D01*
X150450000Y-47795000D02*
X150450000Y-51900000D01*
X150450000Y-47795000D02*
X153600000Y-47795000D01*
X147300000Y-47795000D02*
X150450000Y-47795000D01*
X132398125Y-50095000D02*
X131405000Y-50095000D01*
X132881000Y-56269000D02*
X126169000Y-56269000D01*
X153600000Y-43750000D02*
X153600000Y-47795000D01*
X133150000Y-43250000D02*
X132398125Y-43250000D01*
X132398125Y-46285000D02*
X133215000Y-46285000D01*
X141100000Y-51400000D02*
X141150000Y-51450000D01*
X144025000Y-45025000D02*
X144548125Y-45548125D01*
X139600000Y-48200000D02*
X144050000Y-48200000D01*
X128725000Y-47555000D02*
X132398125Y-47555000D01*
X144548125Y-47701875D02*
X144548125Y-46780000D01*
X134675000Y-48825000D02*
X137348125Y-48825000D01*
X96348125Y-47460000D02*
X94505000Y-47460000D01*
X98250000Y-42505000D02*
X105250000Y-42505000D01*
X97862500Y-44005000D02*
X97862500Y-42892500D01*
X89925000Y-48730000D02*
X91398125Y-48730000D01*
X109450000Y-51805000D02*
X108550000Y-52705000D01*
X106300000Y-45400000D02*
X106300000Y-43555000D01*
X93750000Y-46705000D02*
X93750000Y-44255000D01*
X88655000Y-50000000D02*
X89925000Y-48730000D01*
X93750000Y-44255000D02*
X94000000Y-44005000D01*
X94505000Y-47460000D02*
X93750000Y-46705000D01*
X87725000Y-50000000D02*
X88655000Y-50000000D01*
X94000000Y-44005000D02*
X94937500Y-44005000D01*
X106300000Y-43555000D02*
X105250000Y-42505000D01*
X97862500Y-42892500D02*
X98250000Y-42505000D01*
X84100000Y-55105000D02*
X84100000Y-44205000D01*
X98230000Y-49675000D02*
X97905000Y-50000000D01*
X105900000Y-51355000D02*
X106300000Y-50955000D01*
X92405000Y-47460000D02*
X93675000Y-48730000D01*
X103025000Y-44005000D02*
X103025000Y-44930000D01*
X103050000Y-48105000D02*
X103548125Y-47606875D01*
X103548125Y-45453125D02*
X103548125Y-46685000D01*
X91398125Y-47460000D02*
X92405000Y-47460000D01*
X100100000Y-49675000D02*
X100100000Y-51305000D01*
X100100000Y-49675000D02*
X98230000Y-49675000D01*
X96348125Y-48730000D02*
X97975000Y-48730000D01*
X97975000Y-48730000D02*
X98600000Y-48105000D01*
X97905000Y-50000000D02*
X96348125Y-50000000D01*
X103500000Y-51355000D02*
X105900000Y-51355000D01*
X103548125Y-49635000D02*
X103548125Y-51306875D01*
X85169000Y-56174000D02*
X84700000Y-55705000D01*
X100150000Y-51355000D02*
X93750000Y-51355000D01*
X93100000Y-52005000D02*
X93100000Y-54955000D01*
X93100000Y-54955000D02*
X91881000Y-56174000D01*
X100150000Y-51355000D02*
X103500000Y-51355000D01*
X106050000Y-41655000D02*
X106800000Y-41655000D01*
X92215000Y-46190000D02*
X92500000Y-45905000D01*
X96350000Y-41655000D02*
X90500000Y-41655000D01*
X110950000Y-50605000D02*
X110475000Y-51080000D01*
X106850000Y-41655000D02*
X106800000Y-41655000D01*
X90405000Y-50000000D02*
X89850000Y-50555000D01*
X92500000Y-43505000D02*
X92150000Y-43155000D01*
X98245000Y-46600000D02*
X100100000Y-46600000D01*
X108100000Y-41655000D02*
X112700000Y-41655000D01*
X87725000Y-54105000D02*
X86300000Y-54105000D01*
X100931000Y-56174000D02*
X95869000Y-56174000D01*
X96348125Y-46190000D02*
X96348125Y-41656875D01*
X84700000Y-55705000D02*
X84100000Y-55105000D01*
X85100000Y-51405000D02*
X85650000Y-51955000D01*
X89850000Y-50555000D02*
X89850000Y-51605000D01*
X96348125Y-46190000D02*
X97835000Y-46190000D01*
X89400000Y-45405000D02*
X86300000Y-45405000D01*
X108150000Y-41705000D02*
X108100000Y-41655000D01*
X114500000Y-43455000D02*
X114500000Y-50055000D01*
X86300000Y-45405000D02*
X85100000Y-46605000D01*
X90265000Y-52020000D02*
X89850000Y-51605000D01*
X84100000Y-44205000D02*
X85150000Y-43155000D01*
X93750000Y-51355000D02*
X93100000Y-52005000D01*
X109450000Y-53855000D02*
X103250000Y-53855000D01*
X85650000Y-51955000D02*
X89500000Y-51955000D01*
X95869000Y-56174000D02*
X95510000Y-55815000D01*
X106300000Y-50955000D02*
X106300000Y-50000000D01*
X89950000Y-42205000D02*
X89950000Y-44855000D01*
X89500000Y-51955000D02*
X89850000Y-51605000D01*
X90500000Y-41655000D02*
X89950000Y-42205000D01*
X86300000Y-54105000D02*
X84700000Y-55705000D01*
X112700000Y-41655000D02*
X114500000Y-43455000D01*
X85100000Y-46605000D02*
X85100000Y-51405000D01*
X103250000Y-53855000D02*
X100931000Y-56174000D01*
X100100000Y-44005000D02*
X100100000Y-46600000D01*
X96348125Y-41656875D02*
X96350000Y-41655000D01*
X96350000Y-41655000D02*
X98150000Y-41655000D01*
X98150000Y-41655000D02*
X106050000Y-41655000D01*
X90265000Y-54105000D02*
X90265000Y-52020000D01*
X113950000Y-50605000D02*
X110950000Y-50605000D01*
X85150000Y-43155000D02*
X88448125Y-43155000D01*
X114500000Y-50055000D02*
X113950000Y-50605000D01*
X97835000Y-46190000D02*
X98245000Y-46600000D01*
X92500000Y-45905000D02*
X92500000Y-43505000D01*
X95510000Y-55815000D02*
X95510000Y-54105000D01*
X106050000Y-41655000D02*
X108100000Y-41655000D01*
X103548125Y-51306875D02*
X103500000Y-51355000D01*
X110475000Y-52830000D02*
X109450000Y-53855000D01*
X110475000Y-51080000D02*
X110475000Y-52830000D01*
X89950000Y-44855000D02*
X89400000Y-45405000D01*
X110950000Y-42955000D02*
X111900000Y-42955000D01*
X111900000Y-42955000D02*
X112600000Y-43655000D01*
X108150000Y-42955000D02*
X108150000Y-41705000D01*
X108550000Y-52705000D02*
X99450000Y-52705000D01*
X99450000Y-52705000D02*
X98050000Y-54105000D01*
X109450000Y-47700000D02*
X109450000Y-51805000D01*
X109450000Y-47700000D02*
X112600000Y-47700000D01*
X106300000Y-47700000D02*
X109450000Y-47700000D01*
X91398125Y-50000000D02*
X90405000Y-50000000D01*
X91881000Y-56174000D02*
X85169000Y-56174000D01*
X112600000Y-43655000D02*
X112600000Y-47700000D01*
X92150000Y-43155000D02*
X91398125Y-43155000D01*
X91398125Y-46190000D02*
X92215000Y-46190000D01*
X100100000Y-51305000D02*
X100150000Y-51355000D01*
X103025000Y-44930000D02*
X103548125Y-45453125D01*
X98600000Y-48105000D02*
X103050000Y-48105000D01*
X87725000Y-47460000D02*
X91398125Y-47460000D01*
X103548125Y-47606875D02*
X103548125Y-46685000D01*
X93675000Y-48730000D02*
X96348125Y-48730000D01*
X62025000Y-45025000D02*
X62548125Y-45548125D01*
X57600000Y-48200000D02*
X62050000Y-48200000D01*
X46725000Y-47555000D02*
X50398125Y-47555000D01*
X52675000Y-48825000D02*
X55348125Y-48825000D01*
X62548125Y-47701875D02*
X62548125Y-46780000D01*
X62548125Y-45548125D02*
X62548125Y-46780000D01*
X56975000Y-48825000D02*
X57600000Y-48200000D01*
X62025000Y-44100000D02*
X62025000Y-45025000D01*
X50398125Y-47555000D02*
X51405000Y-47555000D01*
X55348125Y-48825000D02*
X56975000Y-48825000D01*
X62050000Y-48200000D02*
X62548125Y-47701875D01*
X51405000Y-47555000D02*
X52675000Y-48825000D01*
X64900000Y-51450000D02*
X65300000Y-51050000D01*
X57230000Y-49770000D02*
X56905000Y-50095000D01*
X59150000Y-51450000D02*
X62500000Y-51450000D01*
X59100000Y-49770000D02*
X57230000Y-49770000D01*
X52100000Y-52100000D02*
X52100000Y-55050000D01*
X43100000Y-55200000D02*
X43100000Y-44300000D01*
X59150000Y-51450000D02*
X52750000Y-51450000D01*
X52100000Y-55050000D02*
X50881000Y-56269000D01*
X62548125Y-49730000D02*
X62548125Y-51401875D01*
X62500000Y-51450000D02*
X64900000Y-51450000D01*
X44169000Y-56269000D02*
X43700000Y-55800000D01*
X56905000Y-50095000D02*
X55348125Y-50095000D01*
X59100000Y-49770000D02*
X59100000Y-51400000D01*
X43100000Y-44300000D02*
X44150000Y-43250000D01*
X43700000Y-55800000D02*
X43100000Y-55200000D01*
X52750000Y-51450000D02*
X52100000Y-52100000D01*
X50881000Y-56269000D02*
X44169000Y-56269000D01*
X59100000Y-51400000D02*
X59150000Y-51450000D01*
X45300000Y-54200000D02*
X43700000Y-55800000D01*
X46725000Y-54200000D02*
X45300000Y-54200000D01*
X62548125Y-51401875D02*
X62500000Y-51450000D01*
X65300000Y-51050000D02*
X65300000Y-50095000D01*
X44150000Y-43250000D02*
X47448125Y-43250000D01*
X51150000Y-43250000D02*
X50398125Y-43250000D01*
X51215000Y-46285000D02*
X51500000Y-46000000D01*
X51500000Y-43600000D02*
X51150000Y-43250000D01*
X50398125Y-46285000D02*
X51215000Y-46285000D01*
X51500000Y-46000000D02*
X51500000Y-43600000D01*
X67150000Y-43050000D02*
X67150000Y-41800000D01*
X48500000Y-52050000D02*
X48850000Y-51700000D01*
X48950000Y-44950000D02*
X48400000Y-45500000D01*
X69950000Y-50700000D02*
X69475000Y-51175000D01*
X55350000Y-41750000D02*
X57150000Y-41750000D01*
X71700000Y-41750000D02*
X73500000Y-43550000D01*
X54869000Y-56269000D02*
X54510000Y-55910000D01*
X56835000Y-46285000D02*
X57245000Y-46695000D01*
X49500000Y-41750000D02*
X48950000Y-42300000D01*
X55348125Y-41751875D02*
X55350000Y-41750000D01*
X65850000Y-41750000D02*
X65800000Y-41750000D01*
X54510000Y-55910000D02*
X54510000Y-54200000D01*
X72950000Y-50700000D02*
X69950000Y-50700000D01*
X68450000Y-53950000D02*
X62250000Y-53950000D01*
X65050000Y-41750000D02*
X67100000Y-41750000D01*
X48950000Y-42300000D02*
X48950000Y-44950000D01*
X55348125Y-46285000D02*
X56835000Y-46285000D01*
X50398125Y-50095000D02*
X49405000Y-50095000D01*
X44650000Y-52050000D02*
X48500000Y-52050000D01*
X73500000Y-50150000D02*
X72950000Y-50700000D01*
X69475000Y-52925000D02*
X68450000Y-53950000D01*
X55348125Y-46285000D02*
X55348125Y-41751875D01*
X69475000Y-51175000D02*
X69475000Y-52925000D01*
X49265000Y-54200000D02*
X49265000Y-52115000D01*
X57150000Y-41750000D02*
X65050000Y-41750000D01*
X59100000Y-44100000D02*
X59100000Y-46695000D01*
X49265000Y-52115000D02*
X48850000Y-51700000D01*
X62250000Y-53950000D02*
X59931000Y-56269000D01*
X45300000Y-45500000D02*
X44100000Y-46700000D01*
X44100000Y-46700000D02*
X44100000Y-51500000D01*
X73500000Y-43550000D02*
X73500000Y-50150000D01*
X67150000Y-41800000D02*
X67100000Y-41750000D01*
X48400000Y-45500000D02*
X45300000Y-45500000D01*
X55350000Y-41750000D02*
X49500000Y-41750000D01*
X49405000Y-50095000D02*
X48850000Y-50650000D01*
X59931000Y-56269000D02*
X54869000Y-56269000D01*
X48850000Y-50650000D02*
X48850000Y-51700000D01*
X44100000Y-51500000D02*
X44650000Y-52050000D01*
X67100000Y-41750000D02*
X71700000Y-41750000D01*
X57245000Y-46695000D02*
X59100000Y-46695000D01*
X65050000Y-41750000D02*
X65800000Y-41750000D01*
X71600000Y-43750000D02*
X71600000Y-47795000D01*
X67550000Y-52800000D02*
X58450000Y-52800000D01*
X65300000Y-47795000D02*
X68450000Y-47795000D01*
X70900000Y-43050000D02*
X71600000Y-43750000D01*
X68450000Y-47795000D02*
X71600000Y-47795000D01*
X68450000Y-47795000D02*
X68450000Y-51900000D01*
X58450000Y-52800000D02*
X57050000Y-54200000D01*
X69950000Y-43050000D02*
X70900000Y-43050000D01*
X68450000Y-51900000D02*
X67550000Y-52800000D01*
X48925000Y-48825000D02*
X50398125Y-48825000D01*
X47655000Y-50095000D02*
X48925000Y-48825000D01*
X46725000Y-50095000D02*
X47655000Y-50095000D01*
X56862500Y-44100000D02*
X56862500Y-42987500D01*
X57250000Y-42600000D02*
X64250000Y-42600000D01*
X65300000Y-45495000D02*
X65300000Y-43650000D01*
X65300000Y-43650000D02*
X64250000Y-42600000D01*
X56862500Y-42987500D02*
X57250000Y-42600000D01*
X55348125Y-47555000D02*
X53505000Y-47555000D01*
X52750000Y-44350000D02*
X53000000Y-44100000D01*
X53505000Y-47555000D02*
X52750000Y-46800000D01*
X52750000Y-46800000D02*
X52750000Y-44350000D01*
X53000000Y-44100000D02*
X53937500Y-44100000D01*
M02*
